# xmcd CD database file
#
# Track frame offsets:
#	150
#	18695
#	35835
#	53662
#	69178
#	84473
#	100301
#	118389
#	133116
#	149522
#	164715
#	182447
#	197569
#	212975
#	225975
#	247912
#	263134
#	276638
#	294326
#	310824
#
# Disc length: 4372 seconds
#
# Revision: 2
# Processed by: cddbd v1.5.1PL0 Copyright (c) Steve Scherf et al.
# Submitted via: CDex 1.51
#
DISCID=30111214
DTITLE=Various Artist - Cream of Country Volume 7
DYEAR=2003
DGENRE=Country
TTITLE0=Alan Jackson - Work In Progress
TTITLE1=Buddy Jewl - Help Poor Out The Rain (Lacey's Song)
TTITLE2=Gary Allan - Tough Little Boys
TTITLE3=Martina McBride - Independence Day
TTITLE4=Toby Keith featuring Willie Nelson - Beer For My Horses
TTITLE5=Kennt Chesney - No Shoes, No Shirt, No Problems
TTITLE6=Lonestar - Amazed
TTITLE7=George Strait - Tell Me Something About Tulsa
TTITLE8=Patty Loveless - Lovin All Night
TTITLE9=Randy Travis - Three Wooden Crosses
TTITLE10=Blake Shelton - The Baby
TTITLE11=Bellamy Brothers - Can I Come Home To You
TTITLE12=Brad Paisley - Wrapped Around
TTITLE13=Terri Clark - I Wanna Do It All
TTITLE14=Montgomery Gentry - Hell Yeah
TTITLE15=Darryl Worley - Tennessee River Run
TTITLE16=Tracy Byrd - The Truth About Men
TTITLE17=Alison Krauss and Union Station - New Favorite
TTITLE18=Alabama - I'm In The Mood
TTITLE19=Sons Of The Desert - Hand Of Fate
EXTD=YEAR: 2003
EXTT0=
EXTT1=
EXTT2=
EXTT3=
EXTT4=
EXTT5=
EXTT6=
EXTT7=
EXTT8=
EXTT9=
EXTT10=
EXTT11=
EXTT12=
EXTT13=
EXTT14=
EXTT15=
EXTT16=
EXTT17=
EXTT18=
EXTT19=
PLAYORDER=
